HIERARCHY
ROOT Hips
{
	OFFSET 0.000000 0.000000 0.000000
	CHANNELS 6 Xposition Yposition Zposition Zrotation Yrotation Xrotation 
	JOINT LHipJoint
	{
		OFFSET 0.000000 0.000000 0.000000
		CHANNELS 3 Zrotation Yrotation Xrotation
		JOINT LeftUpLeg
		{
			OFFSET 1.363060 -1.794630 0.839290
			CHANNELS 3 Zrotation Yrotation Xrotation
			JOINT LeftLeg
			{
				OFFSET 2.448110 -6.726130 0.000000
				CHANNELS 3 Zrotation Yrotation Xrotation
				JOINT LeftFoot
				{
					OFFSET 2.562200 -7.039590 0.000000
					CHANNELS 3 Zrotation Yrotation Xrotation
					JOINT LeftToeBase
					{
						OFFSET 0.157640 -0.433110 2.322550
						CHANNELS 3 Zrotation Yrotation Xrotation
						End Site
						{
							OFFSET 0.000000 0.000000 0.000000
						}
					}
				}
			}
		}
	}
	JOINT RHipJoint
	{
		OFFSET 0.000000 0.000000 0.000000
		CHANNELS 3 Zrotation Yrotation Xrotation
		JOINT RightUpLeg
		{
			OFFSET -1.305520 -1.794630 0.839290
			CHANNELS 3 Zrotation Yrotation Xrotation
			JOINT RightLeg
			{
				OFFSET -2.542530 -6.985550 0.000000
				CHANNELS 3 Zrotation Yrotation Xrotation
				JOINT RightFoot
				{
					OFFSET -2.568260 -7.056230 0.000000
					CHANNELS 3 Zrotation Yrotation Xrotation
					JOINT RightToeBase
					{
						OFFSET -0.164730 -0.452590 2.363150
						CHANNELS 3 Zrotation Yrotation Xrotation
						End Site
						{
							OFFSET 0.000000 0.000000 0.000000
						}
					}
				}
			}
		}
	}
	JOINT LowerBack
	{
		OFFSET 0.000000 0.000000 0.000000
		CHANNELS 3 Zrotation Yrotation Xrotation
		JOINT Spine
		{
			OFFSET 0.028270 2.035590 -0.193380
			CHANNELS 3 Zrotation Yrotation Xrotation
			JOINT Spine1
			{
				OFFSET 0.056720 2.048850 -0.042750
				CHANNELS 3 Zrotation Yrotation Xrotation
				JOINT Neck
				{
					OFFSET 0.000000 0.000000 0.000000
					CHANNELS 3 Zrotation Yrotation Xrotation
					JOINT Neck1
					{
						OFFSET -0.054170 1.746240 0.172020
						CHANNELS 3 Zrotation Yrotation Xrotation
						JOINT Head
						{
							OFFSET 0.104070 1.761360 -0.123970
							CHANNELS 3 Zrotation Yrotation Xrotation
							End Site
							{
								OFFSET 0.000000 0.000000 0.000000
							}
						}
					}
				}
				JOINT LeftShoulder
				{
					OFFSET 0.000000 0.000000 0.000000
					CHANNELS 3 Zrotation Yrotation Xrotation
					JOINT LeftArm
					{
						OFFSET 3.362410 1.200890 -0.311210
						CHANNELS 3 Zrotation Yrotation Xrotation
						JOINT LeftForeArm
						{
							OFFSET 4.983000 -0.000000 -0.000000
							CHANNELS 3 Zrotation Yrotation Xrotation
							JOINT LeftHand
							{
								OFFSET 3.483560 -0.000000 -0.000000
								CHANNELS 3 Zrotation Yrotation Xrotation
								JOINT LeftFingerBase
								{
									OFFSET 0.000000 0.000000 0.000000
									CHANNELS 3 Zrotation Yrotation Xrotation
									JOINT LeftHandIndex1
									{
										OFFSET 0.715260 -0.000000 -0.000000
										CHANNELS 3 Zrotation Yrotation Xrotation
										End Site
										{
											OFFSET 0.000000 0.000000 0.000000
										}
									}
								}
								JOINT LThumb
								{
									OFFSET 0.000000 0.000000 0.000000
									CHANNELS 3 Zrotation Yrotation Xrotation
									End Site
									{
										OFFSET 0.000000 0.000000 0.000000
									}
								}
							}
						}
					}
				}
				JOINT RightShoulder
				{
					OFFSET 0.000000 0.000000 0.000000
					CHANNELS 3 Zrotation Yrotation Xrotation
					JOINT RightArm
					{
						OFFSET -3.136600 1.374050 -0.404650
						CHANNELS 3 Zrotation Yrotation Xrotation
						JOINT RightForeArm
						{
							OFFSET -5.241900 -0.000000 -0.000000
							CHANNELS 3 Zrotation Yrotation Xrotation
							JOINT RightHand
							{
								OFFSET -3.444170 -0.000000 -0.000000
								CHANNELS 3 Zrotation Yrotation Xrotation
								JOINT RightFingerBase
								{
									OFFSET 0.000000 0.000000 0.000000
									CHANNELS 3 Zrotation Yrotation Xrotation
									JOINT RightHandIndex1
									{
										OFFSET -0.622530 -0.000000 -0.000000
										CHANNELS 3 Zrotation Yrotation Xrotation
										End Site
										{
											OFFSET 0.000000 0.000000 0.000000
										}
									}
								}
								JOINT RThumb
								{
									OFFSET 0.000000 0.000000 0.000000
									CHANNELS 3 Zrotation Yrotation Xrotation
									End Site
									{
										OFFSET 0.000000 0.000000 0.000000
									}
								}
							}
						}
					}
				}
			}
		}
	}
}
MOTION
Frames: 10
Frame Time: 0.008333
0.481085 22.034992 -2.236299 -1.449702 0.920786 9.012354 -0.540545 -1.068259 -0.647675 -14.431010 0.929909 -30.851547 2.529130 12.080833 33.891968 1.324824 3.196666 25.062213 0.021422 0.942796 2.591538 -1.122099 0.646122 -0.666728 19.087335 3.201355 -31.220468 -2.269349 -11.216753 30.560889 -0.389663 -10.477964 22.968234 -0.631160 -5.083068 14.145588 -0.536841 0.620027 12.216423 1.390422 1.135254 -0.934918 2.140426 0.074189 4.617304 -2.939961 -1.925351 -9.990648 3.647077 -2.289820 25.601898 0.285678 -0.508994 10.067446 9.232965 4.812718 0.462737 -95.413826 -12.804713 11.576520 3.605415 -9.244283 -0.134730 -0.387562 -0.490660 2.860591 25.062279 -11.083971 -4.946059 -7.125000 0.000000 0.000000 -1.145168 18.397575 0.725320 -8.114896 -3.974211 0.085398 94.576416 12.655621 7.806205 -8.838155 19.188839 -1.714003 0.953249 0.638896 41.048566 -23.743591 -21.737168 9.848033 7.125000 0.000000 0.000000 5.341543 -54.717305 -1.277802
0.470629 21.914356 -1.951674 -1.457201 1.011924 8.850411 -0.661141 -1.151528 -0.674204 -14.282795 0.973842 -31.048320 1.867265 11.230838 31.082000 1.447741 2.993456 25.524124 0.015445 0.800816 2.201046 -1.014752 0.708821 -0.695309 18.865821 3.347433 -31.368759 -1.853824 -10.591400 28.521587 -0.388205 -10.748663 23.156537 -0.600159 -4.959267 13.792405 -0.562371 0.652292 12.338408 1.376804 1.175810 -0.912329 2.110798 0.096964 4.648688 -2.891272 -1.943846 -9.964502 3.712514 -2.350162 25.709656 0.296100 -0.521629 10.097136 9.214734 4.859155 0.477144 -95.366587 -12.196913 10.550628 3.384565 -8.809242 -0.095021 -0.400227 -0.483220 3.988563 24.904906 -10.940032 -4.845824 -7.125000 0.000000 0.000000 -1.246483 18.569586 0.784811 -8.091120 -4.018156 0.110476 94.447665 11.741294 7.095521 -8.630361 18.889916 -1.639280 0.958285 0.648043 41.266780 -23.653496 -21.776495 9.825194 7.125000 0.000000 0.000000 5.460500 -54.752975 -1.311054
0.460475 21.773769 -1.661566 -1.471153 1.097270 8.730884 -0.787352 -1.237182 -0.702270 -14.135998 1.100515 -31.279134 1.261248 10.350481 28.277504 1.616252 2.983375 26.451552 0.012573 0.723293 1.987769 -0.904518 0.768813 -0.722243 18.637879 3.491772 -31.494616 -1.470537 -9.953747 26.490735 -0.366754 -11.174827 23.353428 -0.589174 -4.914364 13.664511 -0.577634 0.681279 12.316176 1.362210 1.209564 -0.902985 2.073243 0.118820 4.701937 -2.850364 -1.962367 -9.890924 3.761925 -2.406765 25.873932 0.304596 -0.533833 10.133422 9.197823 4.912846 0.492368 -95.323327 -11.522715 9.672474 3.181823 -8.412352 -0.060331 -0.411242 -0.478035 4.899658 24.736070 -10.794705 -4.743034 -7.125000 0.000000 0.000000 -1.355972 18.744746 0.848519 -8.070624 -4.066288 0.135813 94.347854 10.811153 6.225370 -8.414652 18.576519 -1.562150 0.966395 0.655074 41.587325 -23.638437 -21.831868 9.843713 7.125000 0.000000 0.000000 5.505295 -54.821893 -1.331106
0.451197 21.614138 -1.366276 -1.491469 1.202898 8.639191 -0.917549 -1.321856 -0.732462 -13.987306 1.253367 -31.515544 0.717341 9.462483 25.524555 1.804360 3.188744 27.647616 0.014635 0.778803 2.140349 -0.792528 0.823926 -0.747814 18.409360 3.599452 -31.598900 -1.124878 -9.320037 24.506251 -0.331681 -11.780471 23.629773 -0.603882 -4.974162 13.834960 -0.568003 0.695021 12.168134 1.348498 1.223103 -0.902993 2.025395 0.132861 4.786104 -2.824767 -1.980981 -9.807096 3.802637 -2.458749 26.106991 0.316245 -0.545118 10.191616 9.180862 4.973532 0.507027 -95.288888 -10.794589 9.642154 3.006611 -8.085968 -0.029953 -0.415633 -0.482112 4.855111 24.648144 -10.619326 -4.643252 -7.125000 0.000000 0.000000 -1.406210 18.948814 0.873587 -8.053765 -4.117390 0.160880 94.264389 9.895881 5.226852 -8.191126 18.248910 -1.483025 0.976880 0.660136 42.031810 -23.664898 -21.907934 9.889943 7.125000 0.000000 0.000000 5.513663 -54.922176 -1.346629
0.442888 21.434503 -1.065818 -1.526439 1.330221 8.555927 -1.047639 -1.400593 -0.764761 -13.815146 1.378240 -31.721760 0.243746 8.590327 22.878551 1.974513 3.598311 28.833102 0.021388 0.943276 2.592851 -0.680901 0.871602 -0.771484 18.185867 3.682950 -31.658688 -0.820053 -8.704702 22.603282 -0.290616 -12.548394 24.019139 -0.650753 -5.159919 14.365236 -0.527091 0.691846 11.912243 1.337632 1.215577 -0.907728 1.971208 0.137774 4.908839 -2.821190 -1.997849 -9.726904 3.846232 -2.505097 26.396494 0.337049 -0.554825 10.270005 9.163565 5.040050 0.522233 -95.261007 -10.025712 9.598723 2.867211 -7.831462 -0.006705 -0.418608 -0.488147 4.656366 24.515444 -10.469316 -4.546018 -7.125000 0.000000 0.000000 -1.489904 19.129546 0.919659 -8.039696 -4.171944 0.185439 94.184062 9.021219 4.138267 -7.957330 17.902356 -1.401029 0.989587 0.663150 42.594064 -23.724628 -21.997765 9.957478 7.125000 0.000000 0.000000 5.491751 -55.044423 -1.357541
0.436194 21.232337 -0.759979 -1.561600 1.477630 8.446392 -1.171993 -1.466365 -0.797712 -13.611924 1.389918 -31.842542 -0.146413 7.767895 20.428781 2.086346 4.173080 29.738464 0.028262 1.085015 2.982658 -0.572912 0.907805 -0.791203 17.946323 3.750030 -31.632821 -0.561553 -8.127357 20.842473 -0.252234 -13.387296 24.497304 -0.727359 -5.448474 15.192484 -0.469508 0.670825 11.581918 1.328687 1.184846 -0.912932 1.912447 0.131360 5.068003 -2.826714 -2.010241 -9.658186 3.886514 -2.542291 26.723044 0.361248 -0.560895 10.363127 9.145898 5.110596 0.538008 -95.234004 -9.214208 9.540781 2.777756 -7.678545 0.007978 -0.419858 -0.496826 4.303976 24.372754 -10.336441 -4.454640 -7.125000 0.000000 0.000000 -1.582261 19.293700 0.970959 -8.027576 -4.229066 0.209243 94.095864 8.210517 3.005330 -7.716019 17.539941 -1.317786 1.003515 0.664251 43.242674 -23.794247 -22.082432 10.027643 7.125000 0.000000 0.000000 5.457346 -55.163402 -1.364884
0.430490 21.005511 -0.449565 -1.597097 1.629771 8.276730 -1.284184 -1.514367 -0.830898 -13.359541 1.255177 -31.853182 -0.449125 7.033409 18.265924 2.131694 4.874891 30.334545 0.029997 1.117981 3.073402 -0.474622 0.930209 -0.804529 17.689832 3.847385 -31.488734 -0.352880 -7.614502 19.301781 -0.210708 -14.184552 24.930109 -0.818154 -5.770162 16.119365 -0.409962 0.639872 11.213066 1.322009 1.140963 -0.912151 1.859600 0.116886 5.264323 -2.846804 -2.016723 -9.600052 3.939774 -2.572504 27.055732 0.394802 -0.563971 10.458024 9.128290 5.181793 0.555130 -95.206273 -8.398521 9.461486 2.737295 -7.626918 0.013785 -0.417410 -0.508736 3.822654 24.198676 -10.135267 -4.325901 -7.125000 0.000000 0.000000 -1.696092 19.536647 1.031615 -8.016542 -4.288592 0.232420 93.988358 7.458624 1.929173 -7.487878 17.197212 -1.240925 1.016019 0.665647 43.860058 -23.831635 -22.142527 10.072636 7.125000 0.000000 0.000000 5.449146 -55.248786 -1.374134
0.425299 20.755112 -0.136285 -1.615479 1.777649 8.020498 -1.382722 -1.545831 -0.861192 -13.109414 1.049629 -31.782305 -0.676757 6.411177 16.441178 2.147349 5.627455 30.818093 0.025924 1.038723 2.855360 -0.388733 0.939660 -0.810688 17.414100 3.966305 -31.230912 -0.192776 -7.186011 18.033783 -0.159409 -14.877961 25.233749 -0.904985 -6.061643 16.963586 -0.372292 0.604812 10.856435 1.315631 1.090441 -0.904159 1.817530 0.096638 5.476749 -2.864263 -2.016239 -9.558638 3.990969 -2.592058 27.385643 0.427510 -0.561834 10.554974 9.111323 5.251766 0.572951 -95.177647 -7.584194 9.369521 2.735285 -7.654714 0.012991 -0.412735 -0.522271 3.308624 24.018901 -9.897826 -4.180448 -7.125000 0.000000 0.000000 -1.814605 19.820384 1.092298 -8.005744 -4.347869 0.253990 93.857874 6.742428 0.988668 -7.292849 16.909342 -1.177192 1.025325 0.668504 44.365628 -23.815584 -22.160294 10.074799 7.125000 0.000000 0.000000 5.482931 -55.276464 -1.386372
0.420159 20.480019 0.178897 -1.618778 1.905151 7.645446 -1.465882 -1.561785 -0.883437 -12.914561 0.902827 -31.664228 -0.835572 5.928254 15.023648 2.172659 6.351553 31.365575 0.019600 0.904545 2.486052 -0.316673 0.936417 -0.809827 17.148628 4.086148 -30.859704 -0.085519 -6.867596 17.104341 -0.090986 -15.487428 25.389972 -0.979818 -6.300962 17.660269 -0.358968 0.578456 10.553400 1.307785 1.050728 -0.887440 1.782687 0.079781 5.687240 -2.875308 -2.014821 -9.537973 4.044336 -2.611434 27.714634 0.459143 -0.558508 10.658249 9.094997 5.318241 0.590704 -95.140439 -6.789688 9.285709 2.751498 -7.719282 0.009363 -0.407939 -0.535519 2.848502 23.858458 -9.670553 -4.044661 -7.125000 0.000000 0.000000 -1.920885 20.091109 1.144851 -7.994787 -4.404239 0.273445 93.707770 6.052665 0.207547 -7.136149 16.685642 -1.127549 1.032036 0.672649 44.770698 -23.763150 -22.156374 10.050465 7.125000 0.000000 0.000000 5.547815 -55.272027 -1.402211
0.414501 20.176401 0.493998 -1.597079 2.013312 7.117023 -1.531392 -1.563196 -0.888814 -12.854384 0.942656 -31.525177 -0.928107 5.624331 14.126817 2.247744 6.905911 32.091267 0.014766 0.784135 2.155054 -0.259034 0.920711 -0.802939 16.930002 4.120278 -30.394661 -0.040037 -6.695753 16.608551 -0.019844 -16.031417 25.499933 -1.048623 -6.511440 18.275877 -0.375616 0.567895 10.353696 1.295331 1.031510 -0.863395 1.747558 0.072290 5.864438 -2.885288 -2.020488 -9.535434 4.107860 -2.644182 28.042855 0.492928 -0.560056 10.771469 9.078044 5.377314 0.606721 -95.084427 -6.033812 9.234407 2.755472 -7.754985 0.010798 -0.408934 -0.545490 2.562356 23.837806 -9.615895 -4.013321 -7.125000 0.000000 0.000000 -1.930938 20.161726 1.147705 -7.984790 -4.453493 0.290110 93.545353 5.396330 -0.409641 -7.014706 16.519318 -1.090031 1.038054 0.676033 45.153601 -23.711018 -22.153297 10.026285 7.125000 0.000000 0.000000 5.611690 -55.267297 -1.417812
